STARTFONT 2.1
FONT -FontForge-Bible Roman-Bold-R-Normal--11-110-75-75-P-70-FontSpecific-0
SIZE 11 75 75
FONTBOUNDINGBOX 7 8 0 0
COMMENT "Generated by fontforge, http://fontforge.sourceforge.net"
COMMENT "2002, Fredrick Nader. All rights reserved. apostrophe@apostrophiclab.com"
STARTPROPERTIES 36
FOUNDRY "FontForge"
FAMILY_NAME "Bible Roman"
WEIGHT_NAME "Bold"
SLANT "R"
SETWIDTH_NAME "Normal"
ADD_STYLE_NAME ""
PIXEL_SIZE 11
POINT_SIZE 110
RESOLUTION_X 75
RESOLUTION_Y 75
SPACING "P"
AVERAGE_WIDTH 70
CHARSET_REGISTRY "FontSpecific"
CHARSET_ENCODING "0"
FONTNAME_REGISTRY ""
CHARSET_COLLECTIONS "FontSpecific"
FONT_NAME "BibleRomanBold"
FACE_NAME "Bible Roman Bold"
COPYRIGHT "2002, Fredrick Nader. All rights reserved. apostrophe@apostrophiclab.com"
FONT_VERSION "1.0; December 2002"
FONT_ASCENT 9
FONT_DESCENT 2
UNDERLINE_POSITION -2
UNDERLINE_THICKNESS 1
RAW_ASCENT 799
RAW_DESCENT 200
RELATIVE_WEIGHT 70
RELATIVE_SETWIDTH 50
SUPERSCRIPT_X 0
SUPERSCRIPT_Y 5
SUPERSCRIPT_SIZE 7
SUBSCRIPT_X 0
SUBSCRIPT_Y 1
SUBSCRIPT_SIZE 7
FIGURE_WIDTH 5
AVG_UPPERCASE_WIDTH 90
ENDPROPERTIES
CHARS 2
STARTCHAR one
ENCODING -1
SWIDTH 427 0
DWIDTH 5 0
BBX 3 8 0 0
BITMAP
20
C0
00
00
00
00
40
60
ENDCHAR
STARTCHAR B
ENCODING -1
SWIDTH 786 0
DWIDTH 9 0
BBX 7 8 0 0
BITMAP
FC
46
46
78
46
42
42
FC
ENDCHAR
ENDFONT
