STARTFONT 2.1
FONT -FontForge-Bible Roman-Bold-R-Normal--9-90-75-75-P-55-FontSpecific-0
SIZE 9 75 75
FONTBOUNDINGBOX 6 7 0 0
COMMENT "Generated by fontforge, http://fontforge.sourceforge.net"
COMMENT "2002, Fredrick Nader. All rights reserved. apostrophe@apostrophiclab.com"
STARTPROPERTIES 36
FOUNDRY "FontForge"
FAMILY_NAME "Bible Roman"
WEIGHT_NAME "Bold"
SLANT "R"
SETWIDTH_NAME "Normal"
ADD_STYLE_NAME ""
PIXEL_SIZE 9
POINT_SIZE 90
RESOLUTION_X 75
RESOLUTION_Y 75
SPACING "P"
AVERAGE_WIDTH 55
CHARSET_REGISTRY "FontSpecific"
CHARSET_ENCODING "0"
FONTNAME_REGISTRY ""
CHARSET_COLLECTIONS "FontSpecific"
FONT_NAME "BibleRomanBold"
FACE_NAME "Bible Roman Bold"
COPYRIGHT "2002, Fredrick Nader. All rights reserved. apostrophe@apostrophiclab.com"
FONT_VERSION "1.0; December 2002"
FONT_ASCENT 7
FONT_DESCENT 2
UNDERLINE_POSITION -1
UNDERLINE_THICKNESS 1
RAW_ASCENT 799
RAW_DESCENT 200
RELATIVE_WEIGHT 70
RELATIVE_SETWIDTH 50
SUPERSCRIPT_X 0
SUPERSCRIPT_Y 4
SUPERSCRIPT_SIZE 5
SUBSCRIPT_X 0
SUBSCRIPT_Y 1
SUBSCRIPT_SIZE 5
FIGURE_WIDTH 4
AVG_UPPERCASE_WIDTH 70
ENDPROPERTIES
CHARS 2
STARTCHAR one
ENCODING -1
SWIDTH 427 0
DWIDTH 4 0
BBX 2 6 0 0
BITMAP
C0
40
40
40
40
40
ENDCHAR
STARTCHAR B
ENCODING -1
SWIDTH 786 0
DWIDTH 7 0
BBX 6 7 0 0
BITMAP
F8
4C
48
78
48
4C
F8
ENDCHAR
ENDFONT
